<svg width="24" height="24" viewBox="0 0 24 24" fill="none" xmlns="http://www.w3.org/2000/svg">
<path fill-rule="evenodd" clip-rule="evenodd" d="M15.081 4.68085C14.4261 4.68018 13.7978 4.93963 13.3341 5.40215C12.8705 5.86467 12.6096 6.49238 12.6087 7.14725C12.6098 7.80212 12.871 8.42975 13.3347 8.89211C13.7985 9.35447 14.4269 9.61371 15.0818 9.61282C15.7367 9.61371 16.3651 9.35447 16.8289 8.89211C17.2926 8.42975 17.5538 7.80212 17.5549 7.14725C17.5545 6.82292 17.4901 6.50185 17.3656 6.20237C17.2411 5.9029 17.0588 5.63088 16.8292 5.40185C16.5995 5.17283 16.327 4.99128 16.0272 4.86757C15.7274 4.74386 15.4053 4.68041 15.081 4.68085ZM13.8653 7.14725C13.8658 6.98783 13.8976 6.83006 13.959 6.68295C14.0204 6.53583 14.1102 6.40226 14.2233 6.28984C14.3363 6.17743 14.4704 6.08838 14.6178 6.02778C14.7653 5.96718 14.9232 5.93621 15.0826 5.93665C15.7574 5.93665 16.2999 6.48084 16.2999 7.14725C16.2988 7.46906 16.17 7.77727 15.9417 8.00412C15.7135 8.23097 15.4045 8.3579 15.0826 8.35701C14.7608 8.3579 14.4518 8.23097 14.2236 8.00412C13.9953 7.77727 13.8665 7.46906 13.8653 7.14725Z" fill="black"/>
<path fill-rule="evenodd" clip-rule="evenodd" d="M9.93217 17.6826C10.175 17.355 10.3022 16.956 10.2938 16.5482C10.622 16.6453 10.9469 16.6571 11.2583 16.5985C11.9013 16.4762 12.3776 16.0693 12.6305 15.7345L12.6347 15.7286L12.6388 15.7227C12.815 15.4826 12.9361 15.2065 12.9934 14.9142C13.0507 14.6219 13.0428 14.3205 12.9704 14.0316C12.9086 13.7798 12.8068 13.5396 12.669 13.32C12.6053 13.2023 12.5289 13.092 12.4413 12.9909L12.4488 12.9826L12.8373 12.5958C13.1571 12.749 13.5037 12.8453 13.8067 12.9081C14.2264 12.9939 14.6534 13.0394 15.0818 13.0437C18.3477 13.0437 21 10.4065 21 7.14642C21 3.88803 18.3477 1.25 15.081 1.25C11.8159 1.25 9.16278 3.88719 9.16278 7.14642C9.16593 7.90704 9.32849 8.65854 9.63998 9.35246L3.56523 15.4021C3.28181 15.689 3.09257 16.0556 3.02273 16.4528C2.93984 16.9576 3.07547 17.5194 3.56523 18.0066L4.30365 18.7417L4.33881 18.7752C4.62535 19.0151 4.97176 19.1725 5.34094 19.2306C5.60388 19.2713 5.87275 19.2482 6.12485 19.1631C6.37694 19.078 6.60485 18.9334 6.78931 18.7417L7.26316 18.2695C7.67149 18.5081 8.15258 18.5902 8.61692 18.5006C9.13515 18.3979 9.59891 18.1116 9.92296 17.6944L9.92798 17.6885L9.93217 17.6826ZM10.4186 7.14642C10.4186 4.58626 12.5041 2.50581 15.0818 2.50581C17.6587 2.50581 19.7442 4.58626 19.7442 7.14642C19.7442 9.70827 17.6596 11.7879 15.081 11.7879C14.8533 11.7879 14.4589 11.7603 14.0613 11.679C13.6452 11.592 13.3187 11.4639 13.1445 11.319C13.0242 11.2195 12.871 11.1683 12.715 11.1756C12.5589 11.1828 12.4112 11.248 12.3006 11.3584L11.5622 12.0935C11.3939 12.2609 11.2315 12.4518 11.1453 12.672C11.0364 12.9508 11.0716 13.2187 11.1955 13.4422C11.2692 13.5736 11.3881 13.6992 11.4375 13.752L11.4542 13.7695C11.5128 13.834 11.5438 13.8759 11.5672 13.9227L11.5898 13.9671L11.6149 14.0023L11.6208 14.0107C11.6286 14.0235 11.6403 14.0447 11.656 14.0743C11.6878 14.1354 11.7246 14.2216 11.7481 14.3229C11.7786 14.4355 11.7831 14.5535 11.7614 14.6681C11.7396 14.7826 11.6921 14.8908 11.6225 14.9843C11.5053 15.1375 11.2817 15.3159 11.0247 15.3644C10.8087 15.4054 10.4571 15.3786 9.98826 14.9123C9.87056 14.795 9.71115 14.7291 9.54496 14.7291C9.37877 14.7291 9.21936 14.795 9.10166 14.9123L8.85552 15.1568C8.74174 15.2699 8.67556 15.4223 8.67058 15.5826C8.6656 15.743 8.72219 15.8992 8.82873 16.0191C8.83878 16.0325 8.85413 16.0548 8.87478 16.0861C8.91497 16.1489 8.96185 16.2368 8.99534 16.3372C9.05896 16.5256 9.06901 16.7274 8.9158 16.9451C8.81534 17.0748 8.6119 17.223 8.38083 17.2665C8.18492 17.3042 7.93376 17.2766 7.65079 16.9944C7.53309 16.8771 7.37368 16.8112 7.20749 16.8112C7.0413 16.8112 6.88189 16.8771 6.76419 16.9944L5.90271 17.8526C5.76457 17.9899 5.64317 18.0058 5.52429 17.9882C5.39534 17.9645 5.27375 17.9109 5.16932 17.8317L4.45183 17.1167C4.25174 16.9183 4.24421 16.7651 4.26179 16.6562C4.28873 16.5188 4.35471 16.3921 4.45183 16.2912L10.8514 9.91757C10.9517 9.81757 11.015 9.68647 11.031 9.54576C11.047 9.40504 11.0146 9.26308 10.9393 9.14316L10.9376 9.14064C10.913 9.09978 10.8901 9.05788 10.869 9.01506C10.5759 8.43555 10.4217 7.79581 10.4186 7.14642ZM8.81952 16.0065C8.81952 16.0077 8.82064 16.0091 8.82287 16.0107L8.82204 16.0099L8.81952 16.0065Z" fill="black"/>
</svg>
