<svg width="24" height="24" viewBox="0 0 24 24" fill="none" xmlns="http://www.w3.org/2000/svg">
<path fill-rule="evenodd" clip-rule="evenodd" d="M20.6875 7.105L12.7963 13.64C12.572 13.8258 12.29 13.9275 11.9987 13.9275C11.7075 13.9275 11.4255 13.8258 11.2013 13.64L3.31375 7.105C3.27143 7.23239 3.2499 7.36576 3.25 7.5V17.5C3.25 17.8315 3.3817 18.1495 3.61612 18.3839C3.85054 18.6183 4.16848 18.75 4.5 18.75H19.5C19.8315 18.75 20.1495 18.6183 20.3839 18.3839C20.6183 18.1495 20.75 17.8315 20.75 17.5V7.5C20.7505 7.36583 20.7294 7.23246 20.6875 7.105ZM4.5 5H19.5C20.163 5 20.7989 5.26339 21.2678 5.73223C21.7366 6.20107 22 6.83696 22 7.5V17.5C22 18.163 21.7366 18.7989 21.2678 19.2678C20.7989 19.7366 20.163 20 19.5 20H4.5C3.83696 20 3.20107 19.7366 2.73223 19.2678C2.26339 18.7989 2 18.163 2 17.5V7.5C2 6.83696 2.26339 6.20107 2.73223 5.73223C3.20107 5.26339 3.83696 5 4.5 5ZM4.2375 6.25L11.2075 12.0038C11.4307 12.1881 11.711 12.2893 12.0006 12.29C12.2901 12.2907 12.5709 12.1908 12.795 12.0075L19.835 6.25H4.2375Z" fill="black"/>
</svg>
